<?xml version="1.0" standalone="yes"?>
<svg xmlns="http://www.w3.org/2000/svg" width="1431" height="1158">
<path style="fill:#00000000; stroke:none;" d="M0 0L0 1158L1431 1158L1431 0L0 0z"/>
<path style="fill:#000000; stroke:none;" d="M698 75.4244C688.755 76.6382 679.292 76.2849 670 77.1698C644.097 79.6367 618.249 84.0629 593 90.375C500.237 113.566 415.123 165.185 350.09 235C308.268 279.896 273.643 334.385 252.319 392C232.963 444.297 221.48 498.262 219.039 554C211.625 723.328 299.726 889.13 440 982.645C486.092 1013.37 537.454 1036.05 591 1050.12C655.933 1067.17 723.72 1069.65 790 1060.72C902.89 1045.51 1010.6 987.285 1086.83 903C1171.42 809.473 1219.89 682.428 1214.96 556C1212 479.921 1193.04 404.196 1156.69 337C1089.53 212.825 969.84 119.981 832 88.3488C801.819 81.4227 771.787 78.0192 741 75.9105C727.004 74.9519 711.995 73.587 698 75.4244z"/>
<path style="fill:#c3c3c3; stroke:none;" d="M865 1039C859.413 1034.84 850.695 1034.42 844 1032.88L798 1022.35C748.453 1010.98 697.945 999.371 650 982.308C633.031 976.269 614.847 970.255 600 959.791C594.377 955.828 586.728 949.51 586.318 942C585.785 932.247 597.765 924.302 605 920.015C627.623 906.61 653.531 898.497 678 889.192C732.361 868.52 790.008 848.339 836 811.6C860.129 792.326 881.858 767.869 889 737C876.621 744.735 865.949 754.672 853 761.691C818.736 780.266 778.398 787.006 740 780.565C720.69 777.325 701.042 770.85 684 761.127C663.087 749.196 644.64 733.709 629.46 715C580.275 654.383 576.559 567.508 618.053 502C629.163 484.461 643.569 468.588 660 455.888C689.212 433.308 725.007 419.659 762 418.039C823.264 415.357 883.48 447.316 917.481 498C941.806 534.26 952.92 578.618 947.714 622C946.495 632.163 944.448 642.177 941.576 652C939.82 658.002 937.06 663.842 936 670C944.037 662.655 949.741 651.792 956.151 643C974.111 618.37 991.469 591.201 1016 572.503C1040.94 553.491 1072.9 550.972 1103 548.911C1125 547.404 1146.97 546.925 1169 545.961C1182.28 545.379 1195.7 544.009 1209 544C1209 524.357 1205.91 504.312 1202.42 485C1195 443.836 1182.73 404.058 1165.31 366C1140.14 311.026 1104.65 262.649 1062 220C1026.06 184.058 983.41 154.458 938 131.753C773.172 49.339 568.63 67.3439 421 177.895C383.837 205.724 350.37 238.865 322.475 276C285.87 324.731 259.101 379.502 242.291 438C222.057 508.412 218.594 583.999 231.576 656C245.37 732.509 276.665 806.622 324.79 868C380.67 939.268 452.764 993.974 537 1027.4C608.765 1055.88 688.36 1066.13 765 1058.83C786.795 1056.75 808.697 1053.16 830 1048.12C841.715 1045.34 853.225 1041.44 865 1039z"/>
<path style="fill:#7f7f7f; stroke:none;" d="M891 727C897.699 735 891.541 746.437 887.988 755C877.797 779.562 858.44 799.274 838 815.6C783.576 859.071 714.664 878.954 651 904.4C635.124 910.745 618.417 916.5 604 925.865C598.863 929.202 591.711 934.227 591.319 941C590.8 949.97 602.372 956.432 609 960.138C629.809 971.774 653.361 978.593 676 985.659C700.721 993.375 725.882 999.847 751 1006.13C788.107 1015.4 825.445 1024.72 863 1032L862 1030C864.804 1031.76 867.751 1034.89 871.089 1035.49C874.649 1036.13 878.703 1034.12 882 1033C890.442 1030.12 898.741 1026.76 907 1023.4C943.83 1008.4 979.141 988.415 1011 964.626C1109.78 890.861 1178.91 782.352 1201.61 661C1205.79 638.641 1207.03 616.514 1209.17 594C1210.09 584.325 1210 574.729 1210 565C1210 561.03 1210.82 555.982 1209.68 552.148C1208.01 546.516 1198.14 549.884 1194 549.985C1177.46 550.391 1160.43 549.776 1144 551.714C1138.36 552.38 1132.66 551.702 1127 552.089C1090.71 554.574 1049.91 553.505 1019 575.746C1002.14 587.878 989.103 605.43 976.884 622C965.667 637.212 954.682 652.61 943.709 668C941.283 671.403 936.082 681.758 931.048 681.079C924.121 680.144 930.955 668.197 932.189 665C939.056 647.215 943.126 628.05 943.961 609C946.744 545.428 915.261 483.223 861 449.425C829.289 429.673 791.266 420.105 754 423.831C721.04 427.127 690.588 438.393 664 458.375C649.967 468.922 637.628 481.726 627.427 496C573.435 571.552 586.873 681.137 660 739.551C710.698 780.049 779.482 788.875 839 763.421C851.92 757.896 863.819 750.336 875 741.87C880.844 737.446 886.748 733.033 891 727z"/>
<path style="fill:#3a3a3a; stroke:none;" d="M808 530C811.959 531.661 816.737 531 821 531C817.041 529.339 812.263 530 808 530z"/>
<path style="fill:#494949; stroke:none;" d="M801 531C803.332 531.985 805.457 531.981 808 532C805.668 531.015 803.543 531.019 801 531z"/>
<path style="fill:#000000; stroke:none;" d="M770 602C764.254 604.178 755.913 608.102 751.468 612.39C743.553 620.024 741.449 632.549 741 643C724.407 633.352 702.54 633.555 687 645.529C664.482 662.881 664.657 697.109 689.004 712.91C694.466 716.455 700.621 718.924 707 720.192C714.253 721.634 721.889 721.25 729 719.254C735.057 717.554 740.957 714.658 745.961 710.841C760.464 699.776 765.745 679.829 758.907 663C755.909 655.624 748.383 651.337 745.452 644.424C742.076 636.462 749.61 621.499 755.055 616.055C758.289 612.821 767.585 605.99 772.572 607.556C776.69 608.848 780.442 614.547 784.004 617.087C791.424 622.379 800.938 625.286 810 625.911C824.306 626.896 838.89 622.827 849.83 613.33C865.768 599.494 869.777 573.364 859.021 555.289C836.971 518.237 773.878 525.217 765.004 569C763.938 574.259 763.607 579.676 764.439 585C765.379 591.019 766.986 596.697 770 602z"/>
<path style="fill:#494949; stroke:none;" d="M821 531C823.332 531.985 825.456 531.981 828 532C825.669 531.015 823.543 531.019 821 531z"/>
<path style="fill:#585858; stroke:none;" d="M798 532C799.248 532.685 799.548 532.749 801 533C799.752 532.315 799.452 532.251 798 532M828 532C829.248 532.685 829.549 532.749 831 533C829.752 532.315 829.452 532.251 828 532z"/>
<path style="fill:#666666; stroke:none;" d="M795 533C796.248 533.685 796.548 533.749 798 534C796.752 533.315 796.452 533.251 795 533M831 533C832.248 533.685 832.548 533.749 834 534C832.752 533.315 832.452 533.251 831 533z"/>
<path style="fill:#3b3b3b; stroke:none;" d="M794 534L795 535L794 534M834 534L835 535L834 534z"/>
<path style="fill:#6b6b6b; stroke:none;" d="M808 536C811.959 537.661 816.737 537 821 537C817.041 535.339 812.263 536 808 536z"/>
<path style="fill:#1f1f1f; stroke:none;" d="M837.667 536.333C837.222 536.778 838.278 536.722 838.333 536.667C838.778 536.222 837.722 536.278 837.667 536.333z"/>
<path style="fill:#232323; stroke:none;" d="M788.667 537.333C788.222 537.778 789.278 537.722 789.333 537.667C789.778 537.222 788.722 537.278 788.667 537.333z"/>
<path style="fill:#5c5c5c; stroke:none;" d="M802 537C804.052 537.874 805.747 537.953 808 538C805.948 537.126 804.253 537.047 802 537z"/>
<path style="fill:#7f7f7f; stroke:none;" d="M808 537.428C801.008 538.43 793.979 540.177 788 544.108C783.019 547.383 778.875 551.834 775.935 557C771.339 565.077 768.211 573.592 769.171 582.999C771.663 607.426 797.856 623.865 820.996 620.71C826.405 619.972 832.092 617.435 837 615.11C860.272 604.083 866.788 572.787 850.725 553.001C840.654 540.594 823.57 535.198 808 537.428z"/>
<path style="fill:#5c5c5c; stroke:none;" d="M821 537C823.052 537.874 824.747 537.953 827 538C824.948 537.126 823.253 537.047 821 537z"/>
<path style="fill:#232323; stroke:none;" d="M839.667 537.333C839.222 537.778 840.278 537.722 840.333 537.667C840.778 537.222 839.722 537.278 839.667 537.333z"/>
<path style="fill:#282828; stroke:none;" d="M786.667 538.333C786.222 538.778 787.278 538.722 787.333 538.667C787.778 538.222 786.722 538.278 786.667 538.333z"/>
<path style="fill:#4d4d4d; stroke:none;" d="M798 538C799.506 538.683 800.315 538.826 802 539C800.494 538.317 799.685 538.174 798 538M827 538C828.506 538.683 829.315 538.826 831 539C829.494 538.317 828.685 538.174 827 538z"/>
<path style="fill:#323232; stroke:none;" d="M841.667 538.333C841.222 538.778 842.278 538.722 842.333 538.667C842.778 538.222 841.722 538.278 841.667 538.333z"/>
<path style="fill:#4b4b4b; stroke:none;" d="M796.667 539.333C796.222 539.778 797.278 539.722 797.333 539.667C797.778 539.222 796.722 539.278 796.667 539.333z"/>
<path style="fill:#3e3e3e; stroke:none;" d="M831.667 539.333C831.222 539.778 832.278 539.722 832.333 539.667C832.778 539.222 831.722 539.278 831.667 539.333z"/>
<path style="fill:#505050; stroke:none;" d="M782 540C783.248 540.685 783.548 540.749 785 541C783.752 540.315 783.451 540.251 782 540z"/>
<path style="fill:#2f2f2f; stroke:none;" d="M793 540C794.248 540.685 794.548 540.749 796 541C794.752 540.315 794.452 540.251 793 540M833 540C834.248 540.685 834.548 540.749 836 541C834.752 540.315 834.451 540.251 833 540z"/>
<path style="fill:#5e5e5e; stroke:none;" d="M845.667 540.333C845.222 540.778 846.278 540.722 846.333 540.667C846.778 540.222 845.722 540.278 845.667 540.333z"/>
<path style="fill:#202020; stroke:none;" d="M791.667 541.333C791.222 541.778 792.278 541.722 792.333 541.667C792.778 541.222 791.722 541.278 791.667 541.333z"/>
<path style="fill:#1a1a1a; stroke:none;" d="M836.667 541.333C836.222 541.778 837.278 541.722 837.333 541.667C837.778 541.222 836.722 541.278 836.667 541.333z"/>
<path style="fill:#646464; stroke:none;" d="M841.667 545.333C841.222 545.778 842.278 545.722 842.333 545.667C842.778 545.222 841.722 545.278 841.667 545.333z"/>
<path style="fill:#2b2b2b; stroke:none;" d="M775 548L776 549L775 548M853 548L854 549L853 548M774 549L775 550L774 549M854 549L855 550L854 549z"/>
<path style="fill:#191919; stroke:none;" d="M857.333 552.667C857.278 552.722 857.222 553.778 857.667 553.333C857.722 553.278 857.778 552.222 857.333 552.667z"/>
<path style="fill:#262626; stroke:none;" d="M776.333 554.667C776.278 554.722 776.222 555.778 776.667 555.333C776.722 555.278 776.778 554.222 776.333 554.667z"/>
<path style="fill:#333333; stroke:none;" d="M853 555L853 558C853.696 556.446 853.696 556.554 853 555z"/>
<path style="fill:#404040; stroke:none;" d="M769 556L770 557L769 556z"/>
<path style="fill:#525252; stroke:none;" d="M776 556L777 557L776 556z"/>
<path style="fill:#404040; stroke:none;" d="M859 556L860 557L859 556z"/>
<path style="fill:#505050; stroke:none;" d="M775 557L776 558L775 557z"/>
<path style="fill:#474747; stroke:none;" d="M860 557L861 558L860 557z"/>
<path style="fill:#545454; stroke:none;" d="M768 558L769 559L768 558z"/>
<path style="fill:#494949; stroke:none;" d="M774.333 558.667C774.278 558.722 774.222 559.778 774.667 559.333C774.722 559.278 774.778 558.222 774.333 558.667M854.333 558.667C854.278 558.722 854.222 559.778 854.667 559.333C854.722 559.278 854.778 558.222 854.333 558.667z"/>
<path style="fill:#575757; stroke:none;" d="M861.333 558.667C861.278 558.722 861.222 559.778 861.667 559.333C861.722 559.278 861.778 558.222 861.333 558.667z"/>
<path style="fill:#595959; stroke:none;" d="M766 560L766 563C766.696 561.446 766.696 561.554 766 560z"/>
<path style="fill:#4c4c4c; stroke:none;" d="M773.333 560.667C773.278 560.722 773.222 561.778 773.667 561.333C773.722 561.278 773.778 560.222 773.333 560.667M855.333 560.667C855.278 560.722 855.222 561.778 855.667 561.333C855.722 561.278 855.778 560.222 855.333 560.667z"/>
<path style="fill:#595959; stroke:none;" d="M862 560L862 563C862.696 561.446 862.696 561.554 862 560M772.333 562.667C772.278 562.722 772.222 563.778 772.667 563.333C772.722 563.278 772.778 562.222 772.333 562.667M856.333 562.667C856.278 562.722 856.222 563.778 856.667 563.333C856.722 563.278 856.778 562.222 856.333 562.667z"/>
<path style="fill:#4c4c4c; stroke:none;" d="M765 563L765 567C765.71 565.241 765.71 564.759 765 563M863 563L863 567C863.71 565.24 863.71 564.76 863 563z"/>
<path style="fill:#393939; stroke:none;" d="M771 564L772 565L771 564M857 564L858 565L857 564z"/>
<path style="fill:#666666; stroke:none;" d="M771 565L771 568C771.696 566.446 771.696 566.554 771 565M857 565L857 568C857.696 566.446 857.696 566.554 857 565z"/>
<path style="fill:#404040; stroke:none;" d="M764 567L764 572C764.83 569.97 764.83 569.03 764 567z"/>
<path style="fill:#3f3f3f; stroke:none;" d="M864 567L864 572C864.83 569.97 864.83 569.03 864 567z"/>
<path style="fill:#333333; stroke:none;" d="M763 572L763 585C764.591 581.209 764.591 575.791 763 572z"/>
<path style="fill:#0d0d0d; stroke:none;" d="M768 572L768 585C769.591 581.209 769.591 575.791 768 572z"/>
<path style="fill:#4f4f4f; stroke:none;" d="M769 572L770 573L769 572M859 572L860 573L859 572z"/>
<path style="fill:#0d0d0d; stroke:none;" d="M860 572L860 585C861.591 581.209 861.591 575.791 860 572z"/>
<path style="fill:#333333; stroke:none;" d="M865 572L865 585C866.591 581.209 866.591 575.791 865 572z"/>
<path style="fill:#404040; stroke:none;" d="M764 585L764 590C764.83 587.97 764.83 587.03 764 585z"/>
<path style="fill:#4c4c4c; stroke:none;" d="M864 585L863 594C864.767 591.049 865.312 588.218 864 585M765 590L765 594C765.71 592.241 765.71 591.759 765 590z"/>
<path style="fill:#383838; stroke:none;" d="M770 590L771 591L770 590z"/>
<path style="fill:#666666; stroke:none;" d="M771 590L771 593C771.696 591.446 771.696 591.554 771 590M857 590L857 593C857.696 591.446 857.696 591.554 857 590z"/>
<path style="fill:#383838; stroke:none;" d="M858 590L859 591L858 590z"/>
<path style="fill:#555555; stroke:none;" d="M772.333 593.667C772.278 593.722 772.222 594.778 772.667 594.333C772.722 594.278 772.778 593.222 772.333 593.667z"/>
<path style="fill:#595959; stroke:none;" d="M856 593L856 596C856.696 594.446 856.696 594.554 856 593M766 594L766 597C766.696 595.446 766.696 595.554 766 594M862 594L862 597C862.696 595.446 862.696 595.554 862 594z"/>
<path style="fill:#4c4c4c; stroke:none;" d="M773.333 595.667C773.278 595.722 773.222 596.778 773.667 596.333C773.722 596.278 773.778 595.222 773.333 595.667z"/>
<path style="fill:#666666; stroke:none;" d="M767 597L767 600C767.696 598.446 767.696 598.554 767 597z"/>
<path style="fill:#404040; stroke:none;" d="M774 597C774.406 599.093 774.217 599.02 776 600C775.309 598.611 775.016 598.139 774 597M854 597L854 600C854.696 598.446 854.696 598.554 854 597z"/>
<path style="fill:#666666; stroke:none;" d="M861 597L861 600C861.696 598.446 861.696 598.554 861 597z"/>
<path style="fill:#343434; stroke:none;" d="M768 599L769 600L768 599M860 599L861 600L860 599z"/>
<path style="fill:#282828; stroke:none;" d="M775.333 600.667C775.278 600.722 775.222 601.778 775.667 601.333C775.722 601.278 775.778 600.222 775.333 600.667M853.333 600.667C853.278 600.722 853.222 601.778 853.667 601.333C853.722 601.278 853.778 600.222 853.333 600.667z"/>
<path style="fill:#2b2b2b; stroke:none;" d="M859 600L860 601L859 600z"/>
<path style="fill:#181818; stroke:none;" d="M858.333 601.667C858.278 601.722 858.222 602.778 858.667 602.333C858.722 602.278 858.778 601.222 858.333 601.667z"/>
<path style="fill:#191919; stroke:none;" d="M857.333 603.667C857.278 603.722 857.222 604.778 857.667 604.333C857.722 604.278 857.778 603.222 857.333 603.667z"/>
<path style="fill:#414141; stroke:none;" d="M761 606L762 607L761 606z"/>
<path style="fill:#666666; stroke:none;" d="M847.333 606.667C847.278 606.722 847.222 607.778 847.667 607.333C847.722 607.278 847.778 606.222 847.333 606.667z"/>
<path style="fill:#373737; stroke:none;" d="M760 607L761 608L760 607z"/>
<path style="fill:#313131; stroke:none;" d="M781 607L782 608L781 607z"/>
<path style="fill:#353535; stroke:none;" d="M782 608L783 609L782 608z"/>
<path style="fill:#3d3d3d; stroke:none;" d="M846.667 608.333C846.222 608.778 847.278 608.722 847.333 608.667C847.778 608.222 846.722 608.278 846.667 608.333z"/>
<path style="fill:#343434; stroke:none;" d="M764 609L765 610L764 609z"/>
<path style="fill:#373737; stroke:none;" d="M783 609L784 610L783 609M845 609L846 610L845 609z"/>
<path style="fill:#353535; stroke:none;" d="M784 610L785 611L784 610M844 610L845 611L844 610z"/>
<path style="fill:#5b5b5b; stroke:none;" d="M852.333 610.667C852.278 610.722 852.222 611.778 852.667 611.333C852.722 611.278 852.778 610.222 852.333 610.667z"/>
<path style="fill:#666666; stroke:none;" d="M777.333 611.667C777.278 611.722 777.222 612.778 777.667 612.333C777.722 612.278 777.778 611.222 777.333 611.667z"/>
<path style="fill:#303030; stroke:none;" d="M785 611L786 612L785 611M843 611L844 612L843 611z"/>
<path style="fill:#343434; stroke:none;" d="M758 612L759 613L758 612z"/>
<path style="fill:#4e4e4e; stroke:none;" d="M750 613L751 614L750 613z"/>
<path style="fill:#323232; stroke:none;" d="M757 613L758 614L757 613z"/>
<path style="fill:#676767; stroke:none;" d="M778.667 613.333C778.222 613.778 779.278 613.722 779.333 613.667C779.778 613.222 778.722 613.278 778.667 613.333M849.667 613.333C849.222 613.778 850.278 613.722 850.333 613.667C850.778 613.222 849.722 613.278 849.667 613.333z"/>
<path style="fill:#4f4f4f; stroke:none;" d="M749 614L750 615L749 614z"/>
<path style="fill:#343434; stroke:none;" d="M756 614L757 615L756 614z"/>
<path style="fill:#272727; stroke:none;" d="M789.667 614.333C789.222 614.778 790.278 614.722 790.333 614.667C790.778 614.222 789.722 614.278 789.667 614.333M838.667 614.333C838.222 614.778 839.278 614.722 839.333 614.667C839.778 614.222 838.722 614.278 838.667 614.333z"/>
<path style="fill:#343434; stroke:none;" d="M755 615L756 616L755 615z"/>
<path style="fill:#545454; stroke:none;" d="M781 615L782 616L781 615z"/>
<path style="fill:#353535; stroke:none;" d="M791.667 615.333C791.222 615.778 792.278 615.722 792.333 615.667C792.778 615.222 791.722 615.278 791.667 615.333z"/>
<path style="fill:#2b2b2b; stroke:none;" d="M836.667 615.333C836.222 615.778 837.278 615.722 837.333 615.667C837.778 615.222 836.722 615.278 836.667 615.333z"/>
<path style="fill:#545454; stroke:none;" d="M847 615L848 616L847 615z"/>
<path style="fill:#343434; stroke:none;" d="M754 616L755 617L754 616z"/>
<path style="fill:#3b3b3b; stroke:none;" d="M782.667 616.333C782.222 616.778 783.278 616.722 783.333 616.667C783.778 616.222 782.722 616.278 782.667 616.333z"/>
<path style="fill:#444444; stroke:none;" d="M793 616C794.248 616.685 794.548 616.749 796 617C794.752 616.315 794.452 616.251 793 616M833 616C834.248 616.685 834.548 616.749 836 617C834.752 616.315 834.452 616.251 833 616z"/>
<path style="fill:#4f4f4f; stroke:none;" d="M845.667 616.333C845.222 616.778 846.278 616.722 846.333 616.667C846.778 616.222 845.722 616.278 845.667 616.333z"/>
<path style="fill:#343434; stroke:none;" d="M753 617L754 618L753 617z"/>
<path style="fill:#5c5c5c; stroke:none;" d="M796.667 617.333C796.222 617.778 797.278 617.722 797.333 617.667C797.778 617.222 796.722 617.278 796.667 617.333z"/>
<path style="fill:#535353; stroke:none;" d="M831.667 617.333C831.222 617.778 832.278 617.722 832.333 617.667C832.778 617.222 831.722 617.278 831.667 617.333z"/>
<path style="fill:#343434; stroke:none;" d="M752 618L753 619L752 618z"/>
<path style="fill:#626262; stroke:none;" d="M798 618C799.248 618.685 799.548 618.749 801 619C799.752 618.315 799.452 618.251 798 618M827 618C828.506 618.683 829.315 618.826 831 619C829.494 618.317 828.685 618.174 827 618z"/>
<path style="fill:#1d1d1d; stroke:none;" d="M841.667 618.333C841.222 618.778 842.278 618.722 842.333 618.667C842.778 618.222 841.722 618.278 841.667 618.333z"/>
<path style="fill:#343434; stroke:none;" d="M751 619L752 620L751 619z"/>
<path style="fill:#101010; stroke:none;" d="M807 621C811.471 622.876 817.183 622 822 622C817.529 620.124 811.817 621 807 621z"/>
<path style="fill:#606060; stroke:none;" d="M792.667 622.333C792.222 622.778 793.278 622.722 793.333 622.667C793.778 622.222 792.722 622.278 792.667 622.333z"/>
<path style="fill:#303030; stroke:none;" d="M794 622L795 623L794 622M834 622L835 623L834 622z"/>
<path style="fill:#515151; stroke:none;" d="M795 623C796.248 623.685 796.548 623.749 798 624C796.752 623.315 796.452 623.251 795 623M831 623C832.506 623.683 833.315 623.826 835 624C833.494 623.317 832.685 623.174 831 623z"/>
<path style="fill:#434343; stroke:none;" d="M798 624C799.248 624.685 799.548 624.749 801 625C799.752 624.315 799.452 624.251 798 624M828 624C829.248 624.685 829.548 624.749 831 625C829.752 624.315 829.452 624.251 828 624z"/>
<path style="fill:#343434; stroke:none;" d="M748 625L749 626L748 625M801 625C803.052 625.874 804.747 625.953 807 626C804.948 625.126 803.253 625.047 801 625M822 625C824.052 625.874 825.747 625.953 828 626C825.948 625.126 824.253 625.047 822 625z"/>
<path style="fill:#252525; stroke:none;" d="M807 626C811.471 627.876 817.183 627 822 627C817.529 625.124 811.817 626 807 626z"/>
<path style="fill:#414141; stroke:none;" d="M743 627L744 628L743 627z"/>
<path style="fill:#2c2c2c; stroke:none;" d="M746 632L747 633L746 632z"/>
<path style="fill:#343434; stroke:none;" d="M745 635L746 636L745 635z"/>
<path style="fill:#7f7f7f; stroke:none;" d="M710 641.439C703.541 642.448 697.474 644.46 692 648.105C688.061 650.727 684.544 654.153 681.789 658C661.46 686.387 690.721 720.169 722 715.7C728.017 714.84 733.824 712.702 738.999 709.536C743.116 707.018 746.709 703.808 749.66 699.985C771.253 672.009 741.631 636.499 710 641.439z"/>
<path style="fill:#343434; stroke:none;" d="M744 644L745 645L744 644z"/>
<path style="fill:#ffffff; stroke:none;" d="M935 670L936 671L935 670M934 672L935 673L934 672z"/>
<path style="fill:#303030; stroke:none;" d="M927 679L928 680L927 679M928 680L929 681L928 680z"/>
<path style="fill:#3c3c3c; stroke:none;" d="M891 727L892 728L891 727M893 729L894 730L893 729M894 730L895 731L894 730z"/>
</svg>
